{
  "accessors": [
    {
      "bufferView": 2,
      "componentType": 5126,
      "count": 1960,
      "max": [
        0.06672800332307816,
        0.10311499983072281,
        0.4759399890899658
      ],
      "min": [
        -0.0805170014500618,
        -0.06368900090456009,
        0.4110279977321625
      ],
      "type": "VEC3"
    },
    {
      "bufferView": 2,
      "byteOffset": 23520,
      "componentType": 5126,
      "count": 1960,
      "max": [
        1.0,
        1.0,
        1.0
      ],
      "min": [
        -1.0,
        -1.0,
        -1.0
      ],
      "type": "VEC3"
    },
    {
      "bufferView": 3,
      "componentType": 5126,
      "count": 1960,
      "max": [
        0.9996175765991211,
        0.9994730949401855,
        0.9998759627342224,
        1.0
      ],
      "min": [
        -0.9998834729194641,
        -0.9998548030853271,
        -0.9999991059303284,
        -1.0
      ],
      "type": "VEC4"
    },
    {
      "bufferView": 1,
      "componentType": 5126,
      "count": 1960,
      "max": [
        0.9945769906044006,
        0.8839079737663269
      ],
      "min": [
        0.0,
        2.300000051036477e-05
      ],
      "type": "VEC2"
    },
    {
      "bufferView": 0,
      "componentType": 5125,
      "count": 9786,
      "type": "SCALAR"
    },
    {
      "bufferView": 2,
      "byteOffset": 47040,
      "componentType": 5126,
      "count": 1114,
      "max": [
        0.030709000304341316,
        0.030709000304341316,
        0.4780080020427704
      ],
      "min": [
        -0.030709000304341316,
        -0.030709000304341316,
        0.4616119861602783
      ],
      "type": "VEC3"
    },
    {
      "bufferView": 2,
      "byteOffset": 60408,
      "componentType": 5126,
      "count": 1114,
      "max": [
        1.0,
        1.0,
        1.0
      ],
      "min": [
        -1.0,
        -1.0,
        -1.0
      ],
      "type": "VEC3"
    },
    {
      "bufferView": 3,
      "byteOffset": 31360,
      "componentType": 5126,
      "count": 1114,
      "max": [
        0.9088490605354309,
        0.7061644196510315,
        0.9997124671936035,
        1.0
      ],
      "min": [
        -0.9910403490066528,
        -0.9961482882499695,
        -0.9999828934669495,
        1.0
      ],
      "type": "VEC4"
    },
    {
      "bufferView": 1,
      "byteOffset": 15680,
      "componentType": 5126,
      "count": 1114,
      "max": [
        0.9999979734420776,
        0.9363600015640259
      ],
      "min": [
        0.009727999567985535,
        3.000000106112566e-06
      ],
      "type": "VEC2"
    },
    {
      "bufferView": 0,
      "byteOffset": 39144,
      "componentType": 5125,
      "count": 6336,
      "type": "SCALAR"
    },
    {
      "bufferView": 2,
      "byteOffset": 73776,
      "componentType": 5126,
      "count": 15171,
      "max": [
        0.19000299274921417,
        0.1444389969110489,
        0.4328649938106537
      ],
      "min": [
        -0.19000299274921417,
        -0.12065199762582779,
        -0.02104800008237362
      ],
      "type": "VEC3"
    },
    {
      "bufferView": 2,
      "byteOffset": 255828,
      "componentType": 5126,
      "count": 15171,
      "max": [
        1.0,
        1.0,
        1.0
      ],
      "min": [
        -1.0,
        -1.0,
        -1.0
      ],
      "type": "VEC3"
    },
    {
      "bufferView": 3,
      "byteOffset": 49184,
      "componentType": 5126,
      "count": 15171,
      "max": [
        0.9999998807907104,
        0.9999997615814209,
        1.0,
        1.0
      ],
      "min": [
        -0.9999995827674866,
        -0.9999978542327881,
        -0.9999991655349731,
        -1.0
      ],
      "type": "VEC4"
    },
    {
      "bufferView": 1,
      "byteOffset": 24592,
      "componentType": 5126,
      "count": 15171,
      "max": [
        0.9999989867210388,
        0.9768639802932739
      ],
      "min": [
        0.0,
        0.0
      ],
      "type": "VEC2"
    },
    {
      "bufferView": 0,
      "byteOffset": 64488,
      "componentType": 5125,
      "count": 79062,
      "type": "SCALAR"
    },
    {
      "bufferView": 2,
      "byteOffset": 437880,
      "componentType": 5126,
      "count": 10,
      "max": [
        0.15115900337696075,
        0.07926099747419357,
        -0.014453999698162079
      ],
      "min": [
        -0.15115900337696075,
        -0.07926099747419357,
        -0.01800600066781044
      ],
      "type": "VEC3"
    },
    {
      "bufferView": 2,
      "byteOffset": 438000,
      "componentType": 5126,
      "count": 10,
      "max": [
        0.011743002571165562,
        0.02239600569009781,
        0.99968022108078
      ],
      "min": [
        -0.011743002571165562,
        -0.02239600569009781,
        -0.99968022108078
      ],
      "type": "VEC3"
    },
    {
      "bufferView": 3,
      "byteOffset": 291920,
      "componentType": 5126,
      "count": 10,
      "max": [
        -0.32240942120552063,
        0.837069034576416,
        0.02479691244661808,
        1.0
      ],
      "min": [
        -0.9999310374259949,
        -0.9462704658508301,
        -0.02517281472682953,
        -1.0
      ],
      "type": "VEC4"
    },
    {
      "bufferView": 1,
      "byteOffset": 145960,
      "componentType": 5126,
      "count": 10,
      "max": [
        0.9999889731407166,
        0.42689698934555054
      ],
      "min": [
        0.0,
        0.0
      ],
      "type": "VEC2"
    },
    {
      "bufferView": 0,
      "byteOffset": 380736,
      "componentType": 5125,
      "count": 36,
      "type": "SCALAR"
    },
    {
      "bufferView": 2,
      "byteOffset": 438120,
      "componentType": 5126,
      "count": 1122,
      "max": [
        0.1858779937028885,
        0.1136690005660057,
        0.41774699091911316
      ],
      "min": [
        -0.1858779937028885,
        -0.11696600168943405,
        0.002230999991297722
      ],
      "type": "VEC3"
    },
    {
      "bufferView": 2,
      "byteOffset": 451584,
      "componentType": 5126,
      "count": 1122,
      "max": [
        0.9992700219154358,
        0.9987562298774719,
        0.9597561359405518
      ],
      "min": [
        -0.9992700219154358,
        -0.9984604716300964,
        -0.9465855360031128
      ],
      "type": "VEC3"
    },
    {
      "bufferView": 3,
      "byteOffset": 292080,
      "componentType": 5126,
      "count": 1122,
      "max": [
        0.9999927878379822,
        0.99992436170578,
        0.9702392220497131,
        1.0
      ],
      "min": [
        -0.9999635219573975,
        -0.9999731183052063,
        -0.9131432175636292,
        1.0
      ],
      "type": "VEC4"
    },
    {
      "bufferView": 1,
      "byteOffset": 146040,
      "componentType": 5126,
      "count": 1122,
      "max": [
        0.9988560080528259,
        0.9821159839630127
      ],
      "min": [
        0.007213999982923269,
        0.0005869999877177179
      ],
      "type": "VEC2"
    },
    {
      "bufferView": 0,
      "byteOffset": 380880,
      "componentType": 5125,
      "count": 4920,
      "type": "SCALAR"
    },
    {
      "bufferView": 2,
      "byteOffset": 465048,
      "componentType": 5126,
      "count": 945,
      "max": [
        0.19797299802303314,
        0.12714600563049316,
        0.4302709996700287
      ],
      "min": [
        -0.19797299802303314,
        -0.12714700400829315,
        -0.015279999934136868
      ],
      "type": "VEC3"
    },
    {
      "bufferView": 2,
      "byteOffset": 476388,
      "componentType": 5126,
      "count": 945,
      "max": [
        1.0,
        1.0,
        1.0
      ],
      "min": [
        -1.0,
        -1.0,
        -1.0
      ],
      "type": "VEC3"
    },
    {
      "bufferView": 3,
      "byteOffset": 310032,
      "componentType": 5126,
      "count": 945,
      "max": [
        0.999998152256012,
        0.9999993443489075,
        0.999987781047821,
        1.0
      ],
      "min": [
        -0.9982672929763794,
        -0.9999998807907104,
        -0.9997304677963257,
        -1.0
      ],
      "type": "VEC4"
    },
    {
      "bufferView": 1,
      "byteOffset": 155016,
      "componentType": 5126,
      "count": 945,
      "max": [
        0.9946140050888062,
        0.8733569979667664
      ],
      "min": [
        0.0,
        0.0
      ],
      "type": "VEC2"
    },
    {
      "bufferView": 0,
      "byteOffset": 400560,
      "componentType": 5125,
      "count": 4515,
      "type": "SCALAR"
    }
  ],
  "asset": {
    "extras": {
      "author": "Andy woodhead (https://sketchfab.com/Andywoodhead)",
      "license": "CC-BY-4.0 (http://creativecommons.org/licenses/by/4.0/)",
      "source": "https://sketchfab.com/3d-models/vintage-camera-126c2252090f472cbb1b9dcfe1971375",
      "title": "Vintage camera"
    },
    "generator": "Sketchfab-13.12.0",
    "version": "2.0"
  },
  "bufferViews": [
    {
      "buffer": 0,
      "byteLength": 418620,
      "name": "floatBufferViews",
      "target": 34963
    },
    {
      "buffer": 0,
      "byteLength": 162576,
      "byteOffset": 418620,
      "byteStride": 8,
      "name": "floatBufferViews",
      "target": 34962
    },
    {
      "buffer": 0,
      "byteLength": 487728,
      "byteOffset": 581196,
      "byteStride": 12,
      "name": "floatBufferViews",
      "target": 34962
    },
    {
      "buffer": 0,
      "byteLength": 325152,
      "byteOffset": 1068924,
      "byteStride": 16,
      "name": "floatBufferViews",
      "target": 34962
    }
  ],
  "buffers": [
    {
      "byteLength": 1394076,
      "uri": "scene.bin"
    }
  ],
  "images": [
    {
      "uri": "textures/camera_84_baseColor.jpeg"
    },
    {
      "uri": "textures/camera_84_metallicRoughness.png"
    },
    {
      "uri": "textures/camera_84_normal.png"
    },
    {
      "uri": "textures/Bellows_baseColor.jpeg"
    },
    {
      "uri": "textures/Bellows_metallicRoughness.png"
    },
    {
      "uri": "textures/Bellows_normal.png"
    },
    {
      "uri": "textures/Glass_baseColor.jpeg"
    },
    {
      "uri": "textures/Glass_metallicRoughness.png"
    },
    {
      "uri": "textures/Glass_normal.png"
    },
    {
      "uri": "textures/Brass_baseColor.jpeg"
    },
    {
      "uri": "textures/Brass_metallicRoughness.png"
    },
    {
      "uri": "textures/Brass_normal.png"
    },
    {
      "uri": "textures/Lens_baseColor.jpeg"
    },
    {
      "uri": "textures/Lens_metallicRoughness.png"
    },
    {
      "uri": "textures/Lens_normal.png"
    }
  ],
  "materials": [
    {
      "doubleSided": true,
      "name": "camera_84",
      "normalTexture": {
        "index": 2
      },
      "occlusionTexture": {
        "index": 1
      },
      "pbrMetallicRoughness": {
        "baseColorTexture": {
          "index": 0
        },
        "metallicRoughnessTexture": {
          "index": 1
        }
      }
    },
    {
      "doubleSided": true,
      "name": "Bellows",
      "normalTexture": {
        "index": 5,
        "scale": 0.3696087319
      },
      "occlusionTexture": {
        "index": 4
      },
      "pbrMetallicRoughness": {
        "baseColorTexture": {
          "index": 3
        },
        "metallicRoughnessTexture": {
          "index": 4
        }
      }
    },
    {
      "doubleSided": true,
      "name": "Glass",
      "normalTexture": {
        "index": 8
      },
      "occlusionTexture": {
        "index": 7
      },
      "pbrMetallicRoughness": {
        "baseColorTexture": {
          "index": 6
        },
        "metallicRoughnessTexture": {
          "index": 7
        }
      }
    },
    {
      "doubleSided": true,
      "name": "Brass",
      "normalTexture": {
        "index": 11
      },
      "occlusionTexture": {
        "index": 10
      },
      "pbrMetallicRoughness": {
        "baseColorTexture": {
          "index": 9
        },
        "metallicRoughnessTexture": {
          "index": 10
        }
      }
    },
    {
      "doubleSided": true,
      "name": "lens_glass",
      "normalTexture": {
        "index": 8
      },
      "occlusionTexture": {
        "index": 7
      },
      "pbrMetallicRoughness": {
        "baseColorTexture": {
          "index": 6
        },
        "metallicRoughnessTexture": {
          "index": 7
        }
      }
    },
    {
      "doubleSided": true,
      "name": "Lens",
      "normalTexture": {
        "index": 14
      },
      "occlusionTexture": {
        "index": 13
      },
      "pbrMetallicRoughness": {
        "baseColorTexture": {
          "index": 12
        },
        "metallicRoughnessTexture": {
          "index": 13
        }
      }
    }
  ],
  "meshes": [
    {
      "name": "defaultMaterial",
      "primitives": [
        {
          "attributes": {
            "NORMAL": 1,
            "POSITION": 0,
            "TANGENT": 2,
            "TEXCOORD_0": 3
          },
          "indices": 4,
          "material": 5,
          "mode": 4
        }
      ]
    },
    {
      "name": "defaultMaterial",
      "primitives": [
        {
          "attributes": {
            "NORMAL": 6,
            "POSITION": 5,
            "TANGENT": 7,
            "TEXCOORD_0": 8
          },
          "indices": 9,
          "material": 4,
          "mode": 4
        }
      ]
    },
    {
      "name": "defaultMaterial",
      "primitives": [
        {
          "attributes": {
            "NORMAL": 11,
            "POSITION": 10,
            "TANGENT": 12,
            "TEXCOORD_0": 13
          },
          "indices": 14,
          "material": 3,
          "mode": 4
        }
      ]
    },
    {
      "name": "defaultMaterial",
      "primitives": [
        {
          "attributes": {
            "NORMAL": 16,
            "POSITION": 15,
            "TANGENT": 17,
            "TEXCOORD_0": 18
          },
          "indices": 19,
          "material": 2,
          "mode": 4
        }
      ]
    },
    {
      "name": "defaultMaterial",
      "primitives": [
        {
          "attributes": {
            "NORMAL": 21,
            "POSITION": 20,
            "TANGENT": 22,
            "TEXCOORD_0": 23
          },
          "indices": 24,
          "material": 1,
          "mode": 4
        }
      ]
    },
    {
      "name": "defaultMaterial",
      "primitives": [
        {
          "attributes": {
            "NORMAL": 26,
            "POSITION": 25,
            "TANGENT": 27,
            "TEXCOORD_0": 28
          },
          "indices": 29,
          "material": 0,
          "mode": 4
        }
      ]
    }
  ],
  "nodes": [
    {
      "children": [
        1
      ],
      "matrix": [
        1.0,
        0.0,
        0.0,
        0.0,
        0.0,
        2.220446049250313e-16,
        -1.0,
        0.0,
        0.0,
        1.0,
        2.220446049250313e-16,
        0.0,
        0.0,
        0.0,
        0.0,
        1.0
      ],
      "name": "Sketchfab_model"
    },
    {
      "children": [
        2,
        4,
        6,
        8,
        10,
        12
      ],
      "matrix": [
        1.0,
        0.0,
        0.0,
        0.0,
        0.0,
        -4.371139006309477e-08,
        0.999999999999999,
        0.0,
        0.0,
        -0.999999999999999,
        -4.371139006309477e-08,
        0.0,
        0.0,
        0.0,
        0.0,
        1.0
      ],
      "name": "Collada visual scene group"
    },
    {
      "children": [
        3
      ],
      "name": "Lens"
    },
    {
      "mesh": 0,
      "name": "defaultMaterial"
    },
    {
      "children": [
        5
      ],
      "name": "lens"
    },
    {
      "mesh": 1,
      "name": "defaultMaterial"
    },
    {
      "children": [
        7
      ],
      "name": "Brass"
    },
    {
      "mesh": 2,
      "name": "defaultMaterial"
    },
    {
      "children": [
        9
      ],
      "name": "Glass"
    },
    {
      "mesh": 3,
      "name": "defaultMaterial"
    },
    {
      "children": [
        11
      ],
      "name": "Bellows"
    },
    {
      "mesh": 4,
      "name": "defaultMaterial"
    },
    {
      "children": [
        13
      ],
      "name": "camera"
    },
    {
      "mesh": 5,
      "name": "defaultMaterial"
    }
  ],
  "samplers": [
    {
      "magFilter": 9729,
      "minFilter": 9987,
      "wrapS": 10497,
      "wrapT": 10497
    }
  ],
  "scene": 0,
  "scenes": [
    {
      "name": "Sketchfab_Scene",
      "nodes": [
        0
      ]
    }
  ],
  "textures": [
    {
      "sampler": 0,
      "source": 0
    },
    {
      "sampler": 0,
      "source": 1
    },
    {
      "sampler": 0,
      "source": 2
    },
    {
      "sampler": 0,
      "source": 3
    },
    {
      "sampler": 0,
      "source": 4
    },
    {
      "sampler": 0,
      "source": 5
    },
    {
      "sampler": 0,
      "source": 6
    },
    {
      "sampler": 0,
      "source": 7
    },
    {
      "sampler": 0,
      "source": 8
    },
    {
      "sampler": 0,
      "source": 9
    },
    {
      "sampler": 0,
      "source": 10
    },
    {
      "sampler": 0,
      "source": 11
    },
    {
      "sampler": 0,
      "source": 12
    },
    {
      "sampler": 0,
      "source": 13
    },
    {
      "sampler": 0,
      "source": 14
    }
  ]
}
